# Blender 4.5.3 LTS
# www.blender.org
mtllib candle-med.mtl
o candle-med
v 0.000000 -0.311740 -0.123514
v 0.000000 0.068039 -0.017795
v 0.087338 -0.311740 -0.087338
v 0.012583 0.068039 -0.012583
v 0.123514 -0.311740 -0.000000
v 0.017795 0.068039 0.000000
v 0.087338 -0.311740 0.087338
v 0.012583 0.068039 0.012583
v 0.000000 -0.311740 0.123514
v 0.000000 0.068039 0.017795
v -0.087338 -0.311740 0.087338
v -0.012583 0.068039 0.012583
v -0.123514 -0.311740 -0.000000
v -0.017795 0.068039 0.000000
v -0.087338 -0.311740 -0.087338
v -0.012583 0.068039 -0.012583
v 0.087338 0.068039 -0.087338
v 0.000000 0.068039 -0.123514
v 0.123514 0.068039 -0.000000
v 0.087338 0.068039 0.087338
v 0.000000 0.068039 0.123514
v -0.087338 0.068039 0.087338
v -0.123514 0.068039 -0.000000
v -0.087338 0.068039 -0.087338
v 0.012583 0.175661 -0.012583
v 0.000000 0.175661 -0.017795
v 0.017795 0.175661 0.000000
v 0.012583 0.175661 0.012583
v 0.000000 0.175661 0.017795
v -0.012583 0.175661 0.012583
v -0.017795 0.175661 0.000000
v -0.012583 0.175661 -0.012583
vn -0.0000 -0.0000 -1.0000
vn 0.7071 -0.0000 -0.7071
vn 1.0000 -0.0000 -0.0000
vn 0.7071 -0.0000 0.7071
vn -0.0000 -0.0000 1.0000
vn -0.7071 -0.0000 0.7071
vn -1.0000 -0.0000 -0.0000
vn -0.7071 -0.0000 -0.7071
vn -0.0000 -1.0000 -0.0000
vn -0.0000 1.0000 -0.0000
vt 1.000000 0.500000
vt 1.000000 1.000000
vt 0.875000 1.000000
vt 0.875000 0.500000
vt 0.750000 1.000000
vt 0.750000 0.500000
vt 0.625000 1.000000
vt 0.625000 0.500000
vt 0.500000 1.000000
vt 0.500000 0.500000
vt 0.375000 1.000000
vt 0.375000 0.500000
vt 0.250000 1.000000
vt 0.250000 0.500000
vt 0.286839 0.286840
vt 0.250000 0.302099
vt 0.125000 1.000000
vt 0.125000 0.500000
vt 0.000000 1.000000
vt 0.000000 0.500000
vt 0.419706 0.419706
vt 0.250000 0.490000
vt 0.302099 0.250000
vt 0.490000 0.250000
vt 0.286839 0.213160
vt 0.419706 0.080294
vt 0.250000 0.197901
vt 0.250000 0.010000
vt 0.213161 0.213160
vt 0.080294 0.080294
vt 0.197901 0.250000
vt 0.010000 0.250000
vt 0.213161 0.286840
vt 0.080294 0.419706
s 1
f 1/1/1 18/2/1 17/3/2 3/4/2
f 3/4/2 17/3/2 19/5/3 5/6/3
f 5/6/3 19/5/3 20/7/4 7/8/4
f 7/8/4 20/7/4 21/9/5 9/10/5
f 9/10/5 21/9/5 22/11/6 11/12/6
f 11/12/6 22/11/6 23/13/7 13/14/7
f 4/15/2 2/16/1 26/16/1 25/15/2
f 13/14/7 23/13/7 24/17/8 15/18/8
f 15/18/8 24/17/8 18/19/1 1/20/1
f 1/1/9 3/4/9 9/10/9 11/12/9
f 2/16/10 4/15/10 17/21/10 18/22/10
f 4/15/10 6/23/10 19/24/10 17/21/10
f 6/23/10 8/25/10 20/26/10 19/24/10
f 8/25/10 10/27/10 21/28/10 20/26/10
f 10/27/10 12/29/10 22/30/10 21/28/10
f 12/29/10 14/31/10 23/32/10 22/30/10
f 14/31/10 16/33/10 24/34/10 23/32/10
f 16/33/10 2/16/10 18/22/10 24/34/10
f 25/15/10 26/16/10 30/29/10 29/27/10
f 2/16/1 16/33/8 32/33/8 26/16/1
f 14/31/7 12/29/6 30/29/6 31/31/7
f 10/27/5 8/25/4 28/25/4 29/27/5
f 6/23/3 4/15/2 25/15/2 27/23/3
f 16/33/8 14/31/7 31/31/7 32/33/8
f 12/29/6 10/27/5 29/27/5 30/29/6
f 8/25/4 6/23/3 27/23/3 28/25/4
f 31/31/10 30/29/10 26/16/10 32/33/10
f 27/23/10 25/15/10 29/27/10 28/25/10
f 3/4/9 5/6/9 7/8/9 9/10/9
f 11/12/9 13/14/9 15/18/9 1/1/9
