# Blender 4.5.3 LTS
# www.blender.org
mtllib Door.mtl
o door
v -1.580896 -1.401006 18.427370
v -1.580896 5.749395 18.427370
v -1.580896 -1.401006 17.730604
v -1.580896 5.749395 17.730604
v 1.580896 -1.401006 18.427370
v 1.580896 5.749395 18.427370
v 1.580896 -1.401006 17.730604
v 1.580896 5.749395 17.730604
v -2.007145 -1.454040 18.427370
v -2.007145 6.180928 18.427370
v -2.007145 6.180928 17.730604
v -2.007145 -1.454040 17.730604
v 2.007145 -1.454040 17.730604
v 2.007145 6.180928 17.730604
v 2.007145 6.180928 18.427370
v 2.007145 -1.454040 18.427370
v -1.580896 -1.401005 18.220610
v -1.580896 5.749395 18.220610
v -1.580896 5.749395 17.937365
v -1.580896 -1.401005 17.937365
v 1.580896 -1.401005 17.937365
v 1.580896 5.749395 17.937365
v 1.580896 5.749395 18.220610
v 1.580896 -1.401005 18.220610
vn -1.0000 -0.0000 -0.0000
vn 1.0000 -0.0000 -0.0000
vn -0.0000 1.0000 -0.0000
vn -0.0000 -1.0000 -0.0000
vn -0.0000 -0.0000 1.0000
vn -0.0000 -0.0000 -1.0000
vt 0.375000 0.000000
vt 0.625000 0.000000
vt 0.625000 0.250000
vt 0.375000 0.250000
vt 0.598454 0.473454
vt 0.401546 0.473454
vt 0.375000 0.500000
vt 0.625000 0.500000
vt 0.625000 0.750000
vt 0.375000 0.750000
vt 0.401546 0.973454
vt 0.401546 0.776546
vt 0.125000 0.500000
vt 0.125000 0.750000
vt 0.875000 0.500000
vt 0.875000 0.750000
vt 0.598454 0.973454
vt 0.625000 1.000000
vt 0.375000 1.000000
vt 0.598454 0.276546
vt 0.401546 0.276546
vt 0.598454 0.776546
s 0
f 9/1/1 10/2/1 11/3/1 12/4/1
f 8/5/1 7/6/1 21/6/1 22/5/1
f 13/7/2 14/8/2 15/9/2 16/10/2
f 1/11/3 5/12/3 24/12/3 17/11/3
f 12/13/4 13/7/4 16/10/4 9/14/4
f 14/8/3 11/15/3 10/16/3 15/9/3
f 1/11/5 2/17/5 10/18/5 9/19/5
f 4/20/6 3/21/6 12/4/6 11/3/6
f 3/21/6 7/6/6 13/7/6 12/4/6
f 8/5/6 4/20/6 11/3/6 14/8/6
f 7/6/6 8/5/6 14/8/6 13/7/6
f 6/22/5 5/12/5 16/10/5 15/9/5
f 5/12/5 1/11/5 9/19/5 16/10/5
f 2/17/5 6/22/5 15/9/5 10/18/5
f 20/21/6 19/20/6 22/5/6 21/6/6
f 24/12/5 23/22/5 18/17/5 17/11/5
f 7/6/3 3/21/3 20/21/3 21/6/3
f 2/17/2 1/11/2 17/11/2 18/17/2
f 6/22/4 2/17/4 18/17/4 23/22/4
f 5/12/1 6/22/1 23/22/1 24/12/1
f 4/20/4 8/5/4 22/5/4 19/20/4
f 3/21/2 4/20/2 19/20/2 20/21/2
