# Blender 4.5.3 LTS
# www.blender.org
mtllib sword.mtl
o sword
v 16.564688 0.506203 -6.570492
v 16.368231 0.572301 -6.576109
v 16.745865 0.878414 -8.527182
v 16.549408 0.944513 -8.532799
v 17.178337 2.364966 -6.160088
v 16.981880 2.431065 -6.165705
v 17.359514 2.737178 -8.116777
v 17.163057 2.803277 -8.122395
v 16.486794 0.810664 -3.593204
v 16.461256 0.819256 -3.593934
v 16.541025 1.060881 -3.540584
v 16.566563 1.052289 -3.539854
v 17.170940 1.830140 -8.599987
v 16.789955 1.958323 -8.610880
v 16.967045 1.411257 -6.397949
v 16.586060 1.539440 -6.408843
v 16.509418 0.867341 -3.250242
v 16.459892 0.884004 -3.251658
v 16.880651 1.625024 -12.110192
v 17.077110 1.558925 -12.104575
v 17.502184 2.510651 -12.177382
v 17.121199 2.638834 -12.188274
v 17.494301 3.483788 -11.699788
v 17.690760 3.417689 -11.694171
v 17.203129 2.461283 -12.681795
v 17.355112 2.410148 -12.677450
v 17.489817 2.637012 -12.731199
v 17.235790 2.722480 -12.738462
v 17.351107 2.909514 -12.582829
v 17.503090 2.858379 -12.578483
v 16.487896 0.435354 -12.372864
v 16.684353 0.369255 -12.367247
v 17.887056 4.673458 -11.437117
v 18.083515 4.607359 -11.431499
v 16.514738 0.490501 -12.662766
v 16.711197 0.424402 -12.657149
v 17.913900 4.728605 -11.727018
v 18.110359 4.662506 -11.721401
v 16.907494 1.680171 -12.400095
v 17.103952 1.614072 -12.394478
v 17.529028 2.565798 -12.467283
v 17.148043 2.693981 -12.478176
v 17.521145 3.538934 -11.989691
v 17.717602 3.472836 -11.984074
v 17.647228 3.567743 -17.181950
v 17.901255 3.482275 -17.174686
v 17.596424 3.269274 -16.929346
v 17.748407 3.218139 -16.925001
v 17.744404 3.717505 -16.830379
v 17.896387 3.666370 -16.826035
vn -0.3068 -0.9294 -0.2052
vn -0.9727 0.2272 -0.0469
vn 0.3068 0.9294 0.2052
vn -0.3199 -0.9433 0.0881
vn 0.9727 -0.2272 0.0469
vn -0.3185 -0.9316 0.1750
vn 0.9687 -0.2235 0.1077
vn -0.9795 0.2015 0.0081
vn 0.2672 0.8351 0.4808
vn -0.9110 0.4089 0.0539
vn 0.9002 -0.4310 0.0619
vn 0.2508 0.7927 0.5557
vn -0.9132 0.4073 -0.0071
vn 0.9132 -0.4073 0.0071
vn -0.9915 0.1085 -0.0712
vn -0.9474 0.3188 -0.0271
vn 0.0906 0.1861 -0.9783
vn -0.0906 -0.1861 0.9783
vn 0.9474 -0.3188 0.0271
vn -0.0779 -0.3120 -0.9469
vn 0.8256 -0.4312 -0.3639
vn -0.7621 0.5617 -0.3220
vn 0.2339 0.6326 -0.7383
vn 0.9619 -0.0184 -0.2727
vn -0.8984 0.1488 -0.4132
vn 0.2973 0.8460 -0.4426
vn -0.1854 -0.6162 -0.7654
vn 0.8578 -0.5137 -0.0183
vn 0.9915 -0.1085 0.0712
vn -0.8578 0.5137 0.0183
vt 0.375000 0.000000
vt 0.625000 0.000000
vt 0.625000 0.250000
vt 0.375000 0.250000
vt 0.875000 0.500000
vt 0.750000 0.500000
vt 0.375000 0.500000
vt 0.625000 0.500000
vt 0.625000 0.750000
vt 0.375000 0.750000
vt 0.250000 0.500000
vt 0.250000 0.750000
vt 0.875000 0.750000
vt 0.750000 0.750000
vt 0.375000 0.375000
vt 0.125000 0.750000
vt 0.125000 0.500000
vt 0.570699 0.311205
vt 0.581548 0.380330
vt 0.429301 0.311205
vt 0.418452 0.369670
vt 0.570699 0.438794
vt 0.625000 0.375000
vt 0.429301 0.438794
s 0
f 1/1/1 2/2/1 4/3/1 3/4/1
f 4/5/2 14/6/2 22/6/2 19/5/2
f 7/7/3 8/8/3 6/9/3 5/10/3
f 2/2/4 1/1/4 9/1/4 10/2/4
f 13/11/5 7/7/5 5/10/5 15/12/5
f 14/6/2 4/5/2 2/13/2 16/14/2
f 17/15/6 18/14/6 10/13/6 9/1/6
f 15/12/7 5/10/7 12/10/7 17/12/7
f 16/14/8 2/13/8 10/13/8 18/14/8
f 5/10/9 6/9/9 11/9/9 12/10/9
f 6/9/10 16/14/10 18/14/10 11/9/10
f 1/16/11 15/12/11 17/12/11 9/16/11
f 12/10/12 11/9/12 18/14/12 17/15/12
f 8/8/13 14/6/13 16/14/13 6/9/13
f 3/17/14 13/11/14 15/12/14 1/16/14
f 3/4/1 4/3/1 19/3/1 20/4/1
f 22/6/13 23/8/13 43/8/13 42/6/13
f 24/7/5 21/11/5 41/11/5 44/7/5
f 8/8/3 7/7/3 24/7/3 23/8/3
f 13/11/14 3/17/14 20/17/14 21/11/14
f 7/7/5 13/11/5 21/11/5 24/7/5
f 14/6/13 8/8/13 23/8/13 22/6/13
f 25/18/15 28/19/15 45/19/15 47/18/15
f 26/20/1 25/18/1 47/18/1 48/20/1
f 19/5/16 39/5/16 35/5/16 31/5/16
f 19/5/2 22/6/2 42/6/2 39/5/2
f 44/7/17 43/8/17 37/8/17 38/7/17
f 21/11/14 20/17/14 40/17/14 41/11/14
f 32/4/1 31/3/1 35/3/1 36/4/1
f 33/8/3 34/7/3 38/7/3 37/8/3
f 20/4/18 19/3/18 31/3/18 32/4/18
f 43/8/16 23/8/16 33/8/16 37/8/16
f 23/8/18 24/7/18 34/7/18 33/8/18
f 40/17/19 20/17/19 32/17/19 36/17/19
f 39/3/17 40/4/17 36/4/17 35/3/17
f 24/7/19 44/7/19 38/7/19 34/7/19
f 25/18/20 26/20/20 40/4/20 39/3/20
f 26/20/21 27/21/21 41/15/21 40/4/21
f 29/22/22 28/19/22 42/23/22 43/8/22
f 30/24/23 29/22/23 43/8/23 44/7/23
f 27/21/24 30/24/24 44/7/24 41/15/24
f 28/19/25 25/18/25 39/3/25 42/23/25
f 46/21/26 45/19/26 49/22/26 50/24/26
f 48/20/27 47/18/27 45/19/27 46/21/27
f 29/22/3 30/24/3 50/24/3 49/22/3
f 27/21/28 26/20/28 48/20/28 46/21/28
f 30/24/29 27/21/29 46/21/29 50/24/29
f 28/19/30 29/22/30 49/22/30 45/19/30
